<svg xmlns="http://www.w3.org/2000/svg" xmlns:svg="http://www.w3.org/2000/svg" width="512" height="512" version="1.1" viewBox="0 0 512 512"><title>Coelacanthus&apos; Avatar</title><desc>Coelacanthus&apos; avatar mode with love and magic!</desc><metadata xmlns:cc="http://creativecommons.org/ns#" xmlns:dc="http://purl.org/dc/elements/1.1/" xmlns:rdf="http://www.w3.org/1999/02/22-rdf-syntax-ns#" id="metadata"><rdf:RDF><cc:Work><dc:title>Coelacanthus&apos; Avatar</dc:title><dc:creator>Coelacanthus</dc:creator><dc:format>image/svg+xml</dc:format><dc:type rdf:resource="http://purl.org/dc/dcmitype/StillImage"/><cc:license rdf:resource="http://creativecommons.org/licenses/by-sa/4.0/"/></cc:Work><cc:License rdf:about="http://creativecommons.org/licenses/by-sa/4.0/"><cc:permits rdf:resource="http://creativecommons.org/ns#Reproduction"/><cc:permits rdf:resource="http://creativecommons.org/ns#Distribution"/><cc:requires rdf:resource="http://creativecommons.org/ns#Notice"/><cc:requires rdf:resource="http://creativecommons.org/ns#Attribution"/><cc:permits rdf:resource="http://creativecommons.org/ns#DerivativeWorks"/><cc:requires rdf:resource="http://creativecommons.org/ns#ShareAlike"/></cc:License></rdf:RDF></metadata><g transform="translate(256 256) scale(0.8, 0.8) translate(-256 -256)"><rect width="466" height="436" x="23" y="38" fill="#f45b8d"/><rect width="372" height="340" x="70" y="85" fill="#fff"/><path fill="#000" d="M 198,256 L 138,195 A 18.385 18.385 0 0 1 164,169 L 234,241.5 A 22.627 22.627 0 0 1 234,273.5 L 164,343 A 18.385 18.385 0 0 1 138,317 L 198,256 Z"/><path fill="#000" d="M 254,312 L 354,312 A 5 5 0 0 1 354,347 L 254,347 A 5 5 0 0 1 254,312 Z"/></g></svg>