<svg xmlns="http://www.w3.org/2000/svg" width="512" height="512" viewBox="0 0 65536 65536"><title>Coelacanthus&apos; Avatar (fit into circle)</title><desc>Coelacanthus&apos; avatar made with love and magic!</desc><path fill="#f45b8d" d="M8908.8 10444.8h47718.4v44646.4H8908.8z"/><path fill="#fff" d="M13721.6 15257.6h38092.8v34816H13721.6z"/><path d="m30632.536 31398.752-7628.8-7628.792a1792 1792 0 0 0-2533.688 2533.688L26832 32665.6l-6361.952 6361.952a1792 1792 0 0 0 2533.688 2533.688l7628.8-7628.792a1792 1792 0 0 0 0-2533.696M32563.2 38502.4h10240a1792 1792 0 0 1 0 3584h-10240a1792 1792 0 0 1 0-3584"/></svg>