<svg xmlns="http://www.w3.org/2000/svg" width="512" height="512" viewBox="0 0 65536 65536"><title>Coelacanthus&apos; Avatar</title><desc>Coelacanthus&apos; avatar made with love and magic!</desc><path fill="#f45b8d" d="M2944 4864h59648v55808H2944z"/><path fill="#fff" d="M8960 10880h47616v43520H8960z"/><path d="m30098.67 31056.44-9536-9535.99a2240 2240 0 0 0-3167.11 3167.11L25348 32640l-7952.44 7952.44a2240 2240 0 0 0 3167.11 3167.11l9536-9535.99a2240 2240 0 0 0 0-3167.12M32512 39936h12800a640 640 0 0 1 0 4480H32512a640 640 0 0 1 0-4480"/></svg>